# xmcd
#
# Track frame offsets:
#	150
#	25062
#	64121
#	84099
#	110005
#	131111
#
# Disc length: 4263 seconds
#
# Revision: 2
# Processed by: cddbd v1.5.1PL2 Copyright (c) Steve Scherf et al.
# Submitted via: EasyCDDAExtractor 8.0.2.1
#
DISCID=4710a506
DTITLE=Dio - Bogart's Cincinnati 21-02-01 Disc 1
DYEAR=2001
DGENRE=Hard Rock
TTITLE0=Sunset Superman
TTITLE1=Invisible
TTITLE2=Stand Up And Shout
TTITLE3=Don't Talk To Strangers
TTITLE4=All The Fools Sailed Away
TTITLE5=Magica Tracks
EXTD=
EXTT0=
EXTT1=
EXTT2=
EXTT3=
EXTT4=
EXTT5=
PLAYORDER=
